<?xml version="1.0" encoding="utf-8" standalone="yes"?>
<!DOCTYPE svg PUBLIC "-//W3C//DTD SVG 1.1//EN" "http://www.w3.org/Graphics/SVG/1.1/DTD/svg11.dtd">
<svg style="fill:none;stroke:none;fill-rule:evenodd;clip-rule:evenodd;stroke-linecap:round;stroke-linejoin:round;stroke-miterlimit:1.5;" version="1.1" xmlns="http://www.w3.org/2000/svg" xmlns:xlink="http://www.w3.org/1999/xlink" width="888" height="549" viewBox="0 0 888 549"><style class="text-font-style fontImports" data-font-family="Roboto">@import url(https://fonts.googleapis.com/css2?family=Roboto:wght@400;700&amp;amp;display=block);</style><rect id="" x="0" y="0" width="888" height="548.49" style="fill: #ffffff;"></rect><g id="items" style="isolation: isolate"><g id="blend" style="mix-blend-mode: normal"><g id="g-root-cp_1_label-1_dikd0x7uyosu-fill" data-item-order="-380080" transform="translate(88, 118.490234375)"><g id="cp_1_label-1_dikd0x7uyosu-fill-merged" stroke="none" fill="#4e88e7" fill-opacity="0.2"><g><path d="M10 10 H142 V58 H10 V10"></path></g></g></g><g id="g-root-cp_1_label-1_dikd0x7uyosu-stroke" data-item-order="-380080" transform="translate(88, 118.490234375)"><g id="cp_1_label-1_dikd0x7uyosu-stroke" fill="none" stroke-linecap="round" stroke-linejoin="round" stroke-miterlimit="4" stroke="#4e88e7" stroke-width="2" stroke-opacity="1"><g><path d="M 10 10L 142 10M 142 58L 10 58"></path></g></g></g><g id="g-root-cp_1_left_i09aep7uyn0v-fill" data-item-order="-380072" transform="translate(70, 118.490234375)"><g id="cp_1_left_i09aep7uyn0v-fill-merged" stroke="none" fill="#4e88e7" fill-opacity="0.2"><g><path d="M10 42C10 50.837 17.163 58 26 58 H28 V10 H26C17.163 10 10 17.163 10 26 V42"></path></g></g></g><g id="g-root-cp_1_left_i09aep7uyn0v-stroke" data-item-order="-380072" transform="translate(70, 118.490234375)"><g id="cp_1_left_i09aep7uyn0v-stroke" fill="none" stroke-linecap="round" stroke-linejoin="round" stroke-miterlimit="4" stroke="#4e88e7" stroke-width="2" stroke-opacity="1"><g><path d="M 28 10L 26 10C 17.1634 10 10 17.1634 10 26M 28 58L 26 58C 17.1634 58 10 50.8366 10 42M 10 42L 10 26"></path></g></g></g><g id="g-root-cp_1_right_1hjfshd7uyoe8-fill" data-item-order="-380058" transform="translate(220, 118.490234375)"><g id="cp_1_right_1hjfshd7uyoe8-fill-merged" stroke="none" fill="#4e88e7" fill-opacity="0.2"><g><path d="M28 42C28 50.837 20.837 58 12 58 H10 V10 H12C20.837 10 28 17.163 28 26 V42"></path></g></g></g><g id="g-root-cp_1_right_1hjfshd7uyoe8-stroke" data-item-order="-380058" transform="translate(220, 118.490234375)"><g id="cp_1_right_1hjfshd7uyoe8-stroke" fill="none" stroke-linecap="round" stroke-linejoin="round" stroke-miterlimit="4" stroke="#4e88e7" stroke-width="2" stroke-opacity="1"><g><path d="M 10 10L 12 10C 20.8366 10 28 17.1634 28 26M 10 58L 12 58C 20.8366 58 28 50.8366 28 42M 28 42L 28 26"></path></g></g></g><g id="g-root-cp_2_label-2_hrin757v03rd-fill" data-item-order="-380044" transform="translate(368, 118.490234375)"><g id="cp_2_label-2_hrin757v03rd-fill-merged" stroke="none" fill="#e55753" fill-opacity="0.2"><g><path d="M10 10 H142 V58 H10 V10"></path></g></g></g><g id="g-root-cp_2_label-2_hrin757v03rd-stroke" data-item-order="-380044" transform="translate(368, 118.490234375)"><g id="cp_2_label-2_hrin757v03rd-stroke" fill="none" stroke-linecap="round" stroke-linejoin="round" stroke-miterlimit="4" stroke="#e55753" stroke-width="2" stroke-opacity="1"><g><path d="M 10 10L 142 10M 142 58L 10 58"></path></g></g></g><g id="g-root-cp_2_left_1_1q6c5ip7v03ka-fill" data-item-order="-380036" transform="translate(350, 118.490234375)"><g id="cp_2_left_1_1q6c5ip7v03ka-fill-merged" stroke="none" fill="#e55753" fill-opacity="0.2"><g><path d="M10 42C10 50.837 17.163 58 26 58 H28 V10 H26C17.163 10 10 17.163 10 26 V42"></path></g></g></g><g id="g-root-cp_2_left_1_1q6c5ip7v03ka-stroke" data-item-order="-380036" transform="translate(350, 118.490234375)"><g id="cp_2_left_1_1q6c5ip7v03ka-stroke" fill="none" stroke-linecap="round" stroke-linejoin="round" stroke-miterlimit="4" stroke="#e55753" stroke-width="2" stroke-opacity="1"><g><path d="M 28 10L 26 10C 17.1634 10 10 17.1634 10 26M 28 58L 26 58C 17.1634 58 10 50.8366 10 42M 10 42L 10 26"></path></g></g></g><g id="g-root-cp_2_right_1_v4uktt7v016r-fill" data-item-order="-380022" transform="translate(500, 118.490234375)"><g id="cp_2_right_1_v4uktt7v016r-fill-merged" stroke="none" fill="#e55753" fill-opacity="0.2"><g><path d="M28 42C28 50.837 20.837 58 12 58 H10 V10 H12C20.837 10 28 17.163 28 26 V42"></path></g></g></g><g id="g-root-cp_2_right_1_v4uktt7v016r-stroke" data-item-order="-380022" transform="translate(500, 118.490234375)"><g id="cp_2_right_1_v4uktt7v016r-stroke" fill="none" stroke-linecap="round" stroke-linejoin="round" stroke-miterlimit="4" stroke="#e55753" stroke-width="2" stroke-opacity="1"><g><path d="M 10 10L 12 10C 20.8366 10 28 17.1634 28 26M 10 58L 12 58C 20.8366 58 28 50.8366 28 42M 28 42L 28 26"></path></g></g></g><g id="g-root-cp_3_label-3_4ik1697v016s-fill" data-item-order="-380008" transform="translate(648, 118.490234375)"><g id="cp_3_label-3_4ik1697v016s-fill-merged" stroke="none" fill="#3cc583" fill-opacity="0.2"><g><path d="M10 10 H142 V58 H10 V10"></path></g></g></g><g id="g-root-cp_3_label-3_4ik1697v016s-stroke" data-item-order="-380008" transform="translate(648, 118.490234375)"><g id="cp_3_label-3_4ik1697v016s-stroke" fill="none" stroke-linecap="round" stroke-linejoin="round" stroke-miterlimit="4" stroke="#3cc583" stroke-width="2" stroke-opacity="1"><g><path d="M 10 10L 142 10M 142 58L 10 58"></path></g></g></g><g id="g-root-cp_3_left_2_1cxdjht7v00zp-fill" data-item-order="-380000" transform="translate(630, 118.490234375)"><g id="cp_3_left_2_1cxdjht7v00zp-fill-merged" stroke="none" fill="#3cc583" fill-opacity="0.2"><g><path d="M10 42C10 50.837 17.163 58 26 58 H28 V10 H26C17.163 10 10 17.163 10 26 V42"></path></g></g></g><g id="g-root-cp_3_left_2_1cxdjht7v00zp-stroke" data-item-order="-380000" transform="translate(630, 118.490234375)"><g id="cp_3_left_2_1cxdjht7v00zp-stroke" fill="none" stroke-linecap="round" stroke-linejoin="round" stroke-miterlimit="4" stroke="#3cc583" stroke-width="2" stroke-opacity="1"><g><path d="M 28 10L 26 10C 17.1634 10 10 17.1634 10 26M 28 58L 26 58C 17.1634 58 10 50.8366 10 42M 10 42L 10 26"></path></g></g></g><g id="g-root-cp_3_right_2_mb2zu97v00zq-fill" data-item-order="-379986" transform="translate(780, 118.490234375)"><g id="cp_3_right_2_mb2zu97v00zq-fill-merged" stroke="none" fill="#3cc583" fill-opacity="0.2"><g><path d="M28 42C28 50.837 20.837 58 12 58 H10 V10 H12C20.837 10 28 17.163 28 26 V42"></path></g></g></g><g id="g-root-cp_3_right_2_mb2zu97v00zq-stroke" data-item-order="-379986" transform="translate(780, 118.490234375)"><g id="cp_3_right_2_mb2zu97v00zq-stroke" fill="none" stroke-linecap="round" stroke-linejoin="round" stroke-miterlimit="4" stroke="#3cc583" stroke-width="2" stroke-opacity="1"><g><path d="M 10 10L 12 10C 20.8366 10 28 17.1634 28 26M 10 58L 12 58C 20.8366 58 28 50.8366 28 42M 28 42L 28 26"></path></g></g></g><g id="g-root-sy_-1_Vector_1lu9hwx7v01lb-fill" data-item-order="-379967" transform="translate(271, 208.490234375)"></g><g id="g-root-sy_-1_Vector_1lu9hwx7v01lb-stroke" data-item-order="-379967" transform="translate(271, 208.490234375)"><g id="sy_-1_Vector_1lu9hwx7v01lb-stroke" fill="none" stroke-linecap="round" stroke-linejoin="round" stroke-miterlimit="4" stroke="#484848" stroke-width="2" stroke-opacity="1"><g><path d="M 50 10L 10 10"></path><path d="M 44 16.5L 50.5 10L 44 3.5" stroke-dasharray="none"></path></g></g></g><g id="g-root-sy_-1_Vector_58_142zhf57v03yg-fill" data-item-order="-379963" transform="translate(551, 208.490234375)"></g><g id="g-root-sy_-1_Vector_58_142zhf57v03yg-stroke" data-item-order="-379963" transform="translate(551, 208.490234375)"><g id="sy_-1_Vector_58_142zhf57v03yg-stroke" fill="none" stroke-linecap="round" stroke-linejoin="round" stroke-miterlimit="4" stroke="#484848" stroke-width="2" stroke-opacity="1"><g><path d="M 50 10L 10 10"></path><path d="M 44 16.5L 50.5 10L 44 3.5" stroke-dasharray="none"></path></g></g></g><g id="g-root-cp_1_lines_mcby0h7v035t-fill" data-item-order="-379960" transform="translate(38, 142.490234375)"><g id="cp_1_lines_mcby0h7v035t-fill-merged" stroke="none" fill="#4e88e7" fill-opacity="0.2"><g><path d="M242 108C242 116.837 234.837 124 226 124 H26C17.163 124 10 116.837 10 108 V26C10 17.163 17.163 10 26 10 H41 V18C41 28 49.163 35 58 35 H194C202.837 35 211 28 211 18 V10 H226C234.837 10 242 17.163 242 26 V108"></path></g></g></g><g id="g-root-cp_1_lines_mcby0h7v035t-stroke" data-item-order="-379960" transform="translate(38, 142.490234375)"><g id="cp_1_lines_mcby0h7v035t-stroke" fill="none" stroke-linecap="round" stroke-linejoin="round" stroke-miterlimit="4" stroke="#4e88e7" stroke-width="2" stroke-opacity="1"><g><path d="M 241.999969 46L 241.999969 106M 9.999969 106L 9.999969 46M 241.999969 106L 241.999969 108C 241.999969 116.8366 234.836569 124 225.999969 124L 25.999969 124C 17.163369 124 9.999969 116.8366 9.999969 108L 9.999969 106M 9.999969 46L 9.999969 26C 9.999969 17.1634 17.163369 10 25.999969 10L 41.999969 10M 241.999969 46L 241.999969 26C 241.999969 17.1634 234.836569 10 225.999969 10L 209.999969 10"></path></g></g></g><g id="g-root-cp_2_lines_1_1hgbf1t7v01du-fill" data-item-order="-379930" transform="translate(318, 142.490234375)"><g id="cp_2_lines_1_1hgbf1t7v01du-fill-merged" stroke="none" fill="#e55753" fill-opacity="0.2"><g><path d="M242 108C242 116.837 234.837 124 226 124 H26C17.163 124 10 116.837 10 108 V26C10 17.163 17.163 10 26 10 H41 V18C41 28 49.163 35 58 35 H194C202.837 35 211 28 211 18 V10 H226C234.837 10 242 17.163 242 26 V108"></path></g></g></g><g id="g-root-cp_2_lines_1_1hgbf1t7v01du-stroke" data-item-order="-379930" transform="translate(318, 142.490234375)"><g id="cp_2_lines_1_1hgbf1t7v01du-stroke" fill="none" stroke-linecap="round" stroke-linejoin="round" stroke-miterlimit="4" stroke="#e55753" stroke-width="2" stroke-opacity="1"><g><path d="M 242 46L 242 106M 10 106L 10 46M 242 106L 242 108C 242 116.8366 234.8366 124 226 124L 26 124C 17.1634 124 10 116.8366 10 108L 10 106M 10 46L 10 26C 10 17.1634 17.1634 10 26 10L 42 10M 242 46L 242 26C 242 17.1634 234.8366 10 226 10L 210 10"></path></g></g></g><g id="g-root-sy_3_Vector_58_hydv5d7v026j-fill" data-item-order="-379899" transform="translate(714, 257.490234375)"></g><g id="g-root-sy_3_Vector_58_hydv5d7v026j-stroke" data-item-order="-379899" transform="translate(714, 257.490234375)"><g id="sy_3_Vector_58_hydv5d7v026j-stroke" fill="none" stroke-linecap="round" stroke-linejoin="round" stroke-miterlimit="4" stroke="#484848" stroke-width="2" stroke-opacity="1"><g><path d="M 10 50L 10 10"></path><path d="M 3.5 44L 10 50.5L 16.5 44" stroke-dasharray="none"></path></g></g></g><g id="g-root-cp_3_lines_2_1qd7dgx7v01zg-fill" data-item-order="-379898" transform="translate(598, 142.490234375)"><g id="cp_3_lines_2_1qd7dgx7v01zg-fill-merged" stroke="none" fill="#3cc583" fill-opacity="0.2"><g><path d="M242 108C242 116.837 234.837 124 226 124 H26C17.163 124 10 116.837 10 108 V26C10 17.163 17.163 10 26 10 H41 V18C41 28 49.163 35 58 35 H194C202.837 35 211 28 211 18 V10 H226C234.837 10 242 17.163 242 26 V108"></path></g></g></g><g id="g-root-cp_3_lines_2_1qd7dgx7v01zg-stroke" data-item-order="-379898" transform="translate(598, 142.490234375)"><g id="cp_3_lines_2_1qd7dgx7v01zg-stroke" fill="none" stroke-linecap="round" stroke-linejoin="round" stroke-miterlimit="4" stroke="#3cc583" stroke-width="2" stroke-opacity="1"><g><path d="M 242 46L 242 106M 10 106L 10 46M 242 106L 242 108C 242 116.8366 234.8366 124 226 124L 26 124C 17.1634 124 10 116.8366 10 108L 10 106M 10 46L 10 26C 10 17.1634 17.1634 10 26 10L 42 10M 242 46L 242 26C 242 17.1634 234.8366 10 226 10L 210 10"></path></g></g></g><g id="g-root-cp_5_label-5_zqwttd7v01zh-fill" data-item-order="-379868" transform="translate(368, 304.490234375)"><g id="cp_5_label-5_zqwttd7v01zh-fill-merged" stroke="none" fill="#e55753" fill-opacity="0.2"><g><path d="M10 10 H142 V82 H10 V10"></path></g></g></g><g id="g-root-cp_5_label-5_zqwttd7v01zh-stroke" data-item-order="-379868" transform="translate(368, 304.490234375)"><g id="cp_5_label-5_zqwttd7v01zh-stroke" fill="none" stroke-linecap="round" stroke-linejoin="round" stroke-miterlimit="4" stroke="#e55753" stroke-width="2" stroke-opacity="1"><g><path d="M 10 10L 142 10M 142 82L 10 82"></path></g></g></g><g id="g-root-cp_5_left_3_4oss1d7v02rq-fill" data-item-order="-379860" transform="translate(350, 304.490234375)"><g id="cp_5_left_3_4oss1d7v02rq-fill-merged" stroke="none" fill="#e55753" fill-opacity="0.2"><g><path d="M10 66C10 74.837 17.163 82 26 82 H28 V10 H26C17.163 10 10 17.163 10 26 V66"></path></g></g></g><g id="g-root-cp_5_left_3_4oss1d7v02rq-stroke" data-item-order="-379860" transform="translate(350, 304.490234375)"><g id="cp_5_left_3_4oss1d7v02rq-stroke" fill="none" stroke-linecap="round" stroke-linejoin="round" stroke-miterlimit="4" stroke="#e55753" stroke-width="2" stroke-opacity="1"><g><path d="M 28 10L 26 10C 17.1634 10 10 17.1634 10 26M 28 82L 26 82C 17.1634 82 10 74.8366 10 66M 10 66L 10 26"></path></g></g></g><g id="g-root-cp_5_right_3_1d3macx7v02kn-fill" data-item-order="-379846" transform="translate(500, 304.490234375)"><g id="cp_5_right_3_1d3macx7v02kn-fill-merged" stroke="none" fill="#e55753" fill-opacity="0.2"><g><path d="M28 66C28 74.837 20.837 82 12 82 H10 V10 H12C20.837 10 28 17.163 28 26 V66"></path></g></g></g><g id="g-root-cp_5_right_3_1d3macx7v02kn-stroke" data-item-order="-379846" transform="translate(500, 304.490234375)"><g id="cp_5_right_3_1d3macx7v02kn-stroke" fill="none" stroke-linecap="round" stroke-linejoin="round" stroke-miterlimit="4" stroke="#e55753" stroke-width="2" stroke-opacity="1"><g><path d="M 10 10L 12 10C 20.8366 10 28 17.1634 28 26M 10 82L 12 82C 20.8366 82 28 74.8366 28 66M 28 66L 28 26"></path></g></g></g><g id="g-root-cp_4_label-4_m7c5bl7v1h54-fill" data-item-order="-379832" transform="translate(648, 304.490234375)"><g id="cp_4_label-4_m7c5bl7v1h54-fill-merged" stroke="none" fill="#e0cb15" fill-opacity="0.2"><g><path d="M10 10 H142 V82 H10 V10"></path></g></g></g><g id="g-root-cp_4_label-4_m7c5bl7v1h54-stroke" data-item-order="-379832" transform="translate(648, 304.490234375)"><g id="cp_4_label-4_m7c5bl7v1h54-stroke" fill="none" stroke-linecap="round" stroke-linejoin="round" stroke-miterlimit="4" stroke="#e0cb15" stroke-width="2" stroke-opacity="1"><g><path d="M 10 10L 142 10M 142 82L 10 82"></path></g></g></g><g id="g-root-cp_4_left_4_4golwx7v1gch-fill" data-item-order="-379824" transform="translate(630, 304.490234375)"><g id="cp_4_left_4_4golwx7v1gch-fill-merged" stroke="none" fill="#e0cb15" fill-opacity="0.2"><g><path d="M10 66C10 74.837 17.163 82 26 82 H28 V10 H26C17.163 10 10 17.163 10 26 V66"></path></g></g></g><g id="g-root-cp_4_left_4_4golwx7v1gch-stroke" data-item-order="-379824" transform="translate(630, 304.490234375)"><g id="cp_4_left_4_4golwx7v1gch-stroke" fill="none" stroke-linecap="round" stroke-linejoin="round" stroke-miterlimit="4" stroke="#e0cb15" stroke-width="2" stroke-opacity="1"><g><path d="M 28 10L 26 10C 17.1634 10 10 17.1634 10 26M 28 82L 26 82C 17.1634 82 10 74.8366 10 66M 10 66L 10 26"></path></g></g></g><g id="g-root-cp_4_right_4_1cvi48h7v1g5e-fill" data-item-order="-379810" transform="translate(780, 304.490234375)"><g id="cp_4_right_4_1cvi48h7v1g5e-fill-merged" stroke="none" fill="#e0cb15" fill-opacity="0.2"><g><path d="M28 66C28 74.837 20.837 82 12 82 H10 V10 H12C20.837 10 28 17.163 28 26 V66"></path></g></g></g><g id="g-root-cp_4_right_4_1cvi48h7v1g5e-stroke" data-item-order="-379810" transform="translate(780, 304.490234375)"><g id="cp_4_right_4_1cvi48h7v1g5e-stroke" fill="none" stroke-linecap="round" stroke-linejoin="round" stroke-miterlimit="4" stroke="#e0cb15" stroke-width="2" stroke-opacity="1"><g><path d="M 10 10L 12 10C 20.8366 10 28 17.1634 28 26M 10 82L 12 82C 20.8366 82 28 74.8366 28 66M 28 66L 28 26"></path></g></g></g><g id="g-root-cp_5_lines_3_ddkkc17v1gy3-fill" data-item-order="-379792" transform="translate(318, 352.490234375)"><g id="cp_5_lines_3_ddkkc17v1gy3-fill-merged" stroke="none" fill="#e55753" fill-opacity="0.2"><g><path d="M242 108C242 116.837 234.837 124 226 124 H26C17.163 124 10 116.837 10 108 V26C10 17.163 17.163 10 26 10 H41 V18C41 28 49.163 35 58 35 H194C202.837 35 211 28 211 18 V10 H226C234.837 10 242 17.163 242 26 V108"></path></g></g></g><g id="g-root-cp_5_lines_3_ddkkc17v1gy3-stroke" data-item-order="-379792" transform="translate(318, 352.490234375)"><g id="cp_5_lines_3_ddkkc17v1gy3-stroke" fill="none" stroke-linecap="round" stroke-linejoin="round" stroke-miterlimit="4" stroke="#e55753" stroke-width="2" stroke-opacity="1"><g><path d="M 242 46L 242 106M 10 106L 10 46M 242 106L 242 108C 242 116.8366 234.8366 124 226 124L 26 124C 17.1634 124 10 116.8366 10 108L 10 106M 10 46L 10 26C 10 17.1634 17.1634 10 26 10L 42 10M 242 46L 242 26C 242 17.1634 234.8366 10 226 10L 210 10"></path></g></g></g><g id="g-root-cp_4_lines_4_141qj8x7v1fyc-fill" data-item-order="-379764" transform="translate(598, 352.490234375)"><g id="cp_4_lines_4_141qj8x7v1fyc-fill-merged" stroke="none" fill="#e0cb15" fill-opacity="0.2"><g><path d="M242 108C242 116.837 234.837 124 226 124 H26C17.163 124 10 116.837 10 108 V26C10 17.163 17.163 10 26 10 H41 V18C41 28 49.163 35 58 35 H194C202.837 35 211 28 211 18 V10 H226C234.837 10 242 17.163 242 26 V108"></path></g></g></g><g id="g-root-cp_4_lines_4_141qj8x7v1fyc-stroke" data-item-order="-379764" transform="translate(598, 352.490234375)"><g id="cp_4_lines_4_141qj8x7v1fyc-stroke" fill="none" stroke-linecap="round" stroke-linejoin="round" stroke-miterlimit="4" stroke="#e0cb15" stroke-width="2" stroke-opacity="1"><g><path d="M 242 46L 242 106M 10 106L 10 46M 242 106L 242 108C 242 116.8366 234.8366 124 226 124L 26 124C 17.1634 124 10 116.8366 10 108L 10 106M 10 46L 10 26C 10 17.1634 17.1634 10 26 10L 42 10M 242 46L 242 26C 242 17.1634 234.8366 10 226 10L 210 10"></path></g></g></g><g id="g-root-sy_4_Vector_58_hun0mp7v1ibx-fill" data-item-order="-379735" transform="translate(553, 418.490234375)"></g><g id="g-root-sy_4_Vector_58_hun0mp7v1ibx-stroke" data-item-order="-379735" transform="translate(553, 418.490234375)"><g id="sy_4_Vector_58_hun0mp7v1ibx-stroke" fill="none" stroke-linecap="round" stroke-linejoin="round" stroke-miterlimit="4" stroke="#484848" stroke-width="2" stroke-opacity="1"><g><path d="M 12 10L 52 10"></path><path d="M 18 3.5L 11.5 10L 18 16.5" stroke-dasharray="none"></path></g></g></g><g id="g-root-tx_theiniti_141425t7v2wi2-fill" data-item-order="0" transform="translate(62.7109375, 190.490234375)"><g id="tx_theiniti_141425t7v2wi2-fill-merged" stroke="none" fill="#4e88e7" fill-opacity="1"><g><text style="font: 15px Roboto, sans-serif; white-space: pre;" transform="translate(101.2890625, 19)" font-size="15px" font-family="Roboto, sans-serif"><tspan x="-89.29" y="9" dominant-baseline="ideographic">The initial state of the FSM</tspan></text></g></g></g><g id="g-root-tx_theiniti_141425t7v2wi2-stroke" data-item-order="0" transform="translate(62.7109375, 190.490234375)"></g><g id="g-root-tx_thefirst_qriz1t7v2x37-fill" data-item-order="0" transform="translate(349.703125, 190.490234375)"><g id="tx_thefirst_qriz1t7v2x37-fill-merged" stroke="none" fill="#e55753" fill-opacity="1"><g><text style="font: 15px Roboto, sans-serif; white-space: pre;" transform="translate(94.296875, 19)" font-size="15px" font-family="Roboto, sans-serif"><tspan x="-82.3" y="9" dominant-baseline="ideographic">The first state after reset</tspan></text></g></g></g><g id="g-root-tx_thefirst_qriz1t7v2x37-stroke" data-item-order="0" transform="translate(349.703125, 190.490234375)"></g><g id="g-root-tx_greensta_m8l3ht7v2wp5-fill" data-item-order="0" transform="translate(649.203125, 130.490234375)"><g id="tx_greensta_m8l3ht7v2wp5-fill-merged" stroke="none" fill="#3cc583" fill-opacity="1"><g><text style="font: bold 20px Roboto, sans-serif; white-space: pre;" transform="translate(74.796875, 22)" font-weight="bold" font-size="20px" font-family="Roboto, sans-serif"><tspan x="-62.8" y="11" dominant-baseline="ideographic">GREEN State</tspan></text></g></g></g><g id="g-root-tx_greensta_m8l3ht7v2wp5-stroke" data-item-order="0" transform="translate(649.203125, 130.490234375)"></g><g id="g-root-tx_thestate_zp1ek17v2uj0-fill" data-item-order="0" transform="translate(629.296875, 190.490234375)"><g id="tx_thestate_zp1ek17v2uj0-fill-merged" stroke="none" fill="#3cc583" fill-opacity="1"><g><text style="font: 15px Roboto, sans-serif; white-space: pre;" transform="translate(94.703125, 28)" font-size="15px" font-family="Roboto, sans-serif"><tspan x="-82.7" y="0" dominant-baseline="ideographic">The state after the clock </tspan><tspan x="-18.27" y="18" dominant-baseline="ideographic">edge</tspan></text></g></g></g><g id="g-root-tx_thestate_zp1ek17v2uj0-stroke" data-item-order="0" transform="translate(629.296875, 190.490234375)"></g><g id="g-root-tx_redstate_v3sh7v2uio-fill" data-item-order="0" transform="translate(383.6484375, 130.490234375)"><g id="tx_redstate_v3sh7v2uio-fill-merged" stroke="none" fill="#e55753" fill-opacity="1"><g><text style="font: bold 20px Roboto, sans-serif; white-space: pre;" transform="translate(60.3515625, 22)" font-weight="bold" font-size="20px" font-family="Roboto, sans-serif"><tspan x="-48.35" y="11" dominant-baseline="ideographic">RED State</tspan></text></g></g></g><g id="g-root-tx_redstate_v3sh7v2uio-stroke" data-item-order="0" transform="translate(383.6484375, 130.490234375)"></g><g id="g-root-tx_resetsta_4oss1d7v1g5r-fill" data-item-order="0" transform="translate(91.421875, 130.490234375)"><g id="tx_resetsta_4oss1d7v1g5r-fill-merged" stroke="none" fill="#4e88e7" fill-opacity="1"><g><text style="font: bold 20px Roboto, sans-serif; white-space: pre;" transform="translate(72.578125, 22)" font-weight="bold" font-size="20px" font-family="Roboto, sans-serif"><tspan x="-60.58" y="11" dominant-baseline="ideographic">RESET State</tspan></text></g></g></g><g id="g-root-tx_resetsta_4oss1d7v1g5r-stroke" data-item-order="0" transform="translate(91.421875, 130.490234375)"></g><g id="g-root-tx_redstate_1463uup7v2vwt-fill" data-item-order="0" transform="translate(383.6484375, 328.490234375)"><g id="tx_redstate_1463uup7v2vwt-fill-merged" stroke="none" fill="#e55753" fill-opacity="1"><g><text style="font: bold 20px Roboto, sans-serif; white-space: pre;" transform="translate(60.3515625, 22)" font-weight="bold" font-size="20px" font-family="Roboto, sans-serif"><tspan x="-48.35" y="11" dominant-baseline="ideographic">RED State</tspan></text></g></g></g><g id="g-root-tx_redstate_1463uup7v2vwt-stroke" data-item-order="0" transform="translate(383.6484375, 328.490234375)"></g><g id="g-root-tx_yellowst_8z9wx7v2uby-fill" data-item-order="0" transform="translate(666.4453125, 316.490234375)"><g id="tx_yellowst_8z9wx7v2uby-fill-merged" stroke="none" fill="#e0cb15" fill-opacity="1"><g><text style="font: bold 20px Roboto, sans-serif; white-space: pre;" transform="translate(57.5546875, 34)" font-weight="bold" font-size="20px" font-family="Roboto, sans-serif"><tspan x="-45.55" y="-1" dominant-baseline="ideographic">YELLOW </tspan><tspan x="-27.23" y="23" dominant-baseline="ideographic">State</tspan></text></g></g></g><g id="g-root-tx_yellowst_8z9wx7v2uby-stroke" data-item-order="0" transform="translate(666.4453125, 316.490234375)"></g><g id="g-root-tx_thestate_dbp52p7v49hj-fill" data-item-order="0" transform="translate(349.296875, 400.490234375)"><g id="tx_thestate_dbp52p7v49hj-fill-merged" stroke="none" fill="#e55753" fill-opacity="1"><g><text style="font: 15px Roboto, sans-serif; white-space: pre;" transform="translate(94.703125, 28)" font-size="15px" font-family="Roboto, sans-serif"><tspan x="-82.7" y="0" dominant-baseline="ideographic">The state after the clock </tspan><tspan x="-18.27" y="18" dominant-baseline="ideographic">edge</tspan></text></g></g></g><g id="g-root-tx_thestate_dbp52p7v49hj-stroke" data-item-order="0" transform="translate(349.296875, 400.490234375)"></g><g id="g-root-tx_thestate_13z8mwh7v4bnk-fill" data-item-order="0" transform="translate(629.296875, 400.490234375)"><g id="tx_thestate_13z8mwh7v4bnk-fill-merged" stroke="none" fill="#e0cb15" fill-opacity="1"><g><text style="font: 15px Roboto, sans-serif; white-space: pre;" transform="translate(94.703125, 28)" font-size="15px" font-family="Roboto, sans-serif"><tspan x="-82.7" y="0" dominant-baseline="ideographic">The state after the clock </tspan><tspan x="-18.27" y="18" dominant-baseline="ideographic">edge</tspan></text></g></g></g><g id="g-root-tx_thestate_13z8mwh7v4bnk-stroke" data-item-order="0" transform="translate(629.296875, 400.490234375)"></g><g id="g-root-tx_fsmstate_1q9giy97v1i4u-fill" data-item-order="0" transform="translate(230.2252197265625, 38)"><g id="tx_fsmstate_1q9giy97v1i4u-fill-merged" stroke="none" fill="#484848" fill-opacity="1"><g><text style="font: bold 27.1px Roboto, sans-serif; white-space: pre;" transform="translate(213.77471923828125, 26.2451171875)" font-weight="bold" font-size="27.1px" font-family="Roboto, sans-serif"><tspan x="-191.16" y="15.75" dominant-baseline="ideographic">FSM State Transition Sequence</tspan></text></g></g></g><g id="g-root-tx_fsmstate_1q9giy97v1i4u-stroke" data-item-order="0" transform="translate(230.2252197265625, 38)"></g></g></g><path id="wdcy32a8es8w7" d="M65.283 12.757a.35.35 0 0 0 .584.157l5.203-5.141-6.183 3.523.396 1.461zm-2.216-11.7a.35.35 0 0 0-.522.305v3.111l3.276-1.868-2.754-1.548zm3.728 2.105l-4.25 2.421v2.445l6.391-3.644-2.141-1.222zm4.708 3.303a.35.35 0 0 0 0-.609l-1.592-.9-7.365 4.199v1.782a.35.35 0 0 0 .523.305l8.435-4.777z M44.542 2.513c0-.433.355-.783.792-.783s.792.35.792.783-.355.783-.792.783-.792-.35-.792-.783zm59.171 0c0-.433.355-.783.792-.783s.792.35.792.783-.355.783-.792.783-.792-.35-.792-.783zm-85.951 7.636h-1.27v-.487c-.276.201-.864.609-1.881.609-1.202 0-2.274-.794-2.137-2.078.118-1.106 1.153-1.584 1.848-1.727l2.17-.345c0-.539-.29-.956-1.064-1.006s-1.21.305-1.571 1.017l-1.124-.605c1.218-2.631 5.029-1.764 5.029.414v4.207zm-1.27-2.86c.006.396-.062 1.112-.819 1.59-.587.37-1.841.299-1.903-.395-.049-.555.461-.791.906-.898l1.816-.297zm72.662 2.86h-1.27v-.487c-.276.201-.864.609-1.881.609-1.202 0-2.274-.794-2.137-2.078.118-1.106 1.153-1.584 1.848-1.727l2.17-.345c0-.539-.29-.956-1.064-1.006s-1.21.305-1.571 1.017l-1.124-.605c1.218-2.631 5.029-1.764 5.029.414v4.207zm-1.27-2.86c.006.396-.062 1.112-.82 1.59-.587.37-1.841.299-1.903-.395-.049-.555.461-.791.906-.898l1.816-.297zM99.096 10.149H97.85v-8.45h1.246v4.895l2.68-2.559h1.738l-2.633 2.535 2.715 3.578h-1.556l-2.077-2.707-.867.844v1.863zm6.053-6.114h-1.255v6.113h1.255V4.035zm-59.2 0h-1.255v6.113h1.255V4.035zm5.584 6.113V1.697h1.255v2.695c.361-.346 1-.485 1.47-.485 1.452 0 2.477 1.082 2.457 2.448v3.792h-1.27v-3.68c0-.408-.214-1.339-1.315-1.339-.968 0-1.342.756-1.342 1.339v3.681h-1.255zm-4.76-4.894V4.039h.621a.45.45 0 0 0 .45-.45v-.855h1.251v1.305h1.309v1.215h-1.309v3.109c0 .293.105.664.648.664.365 0 .531-.035.736-.07v1.137s-.361.113-.857.113c-1.398 0-1.777-1.051-1.777-1.788V5.254h-1.071zM36.528 4.039h-1.394l2.191 6.106h1.125l1.234-3.918 1.238 3.918h1.129l2.188-6.106h-1.383l-1.359 3.93-1.256-3.93h-1.124l-1.242 3.957-1.348-3.957zM26.212 7.141c-.02 1.566 1.187 3.129 3.223 3.129 1.566 0 2.383-.918 2.734-1.719L31.172 8c-.315.399-.801 1.094-1.738 1.094-1.145 0-1.825-.781-1.891-1.52h4.625c.074-.284.148-.995-.03-1.559-.336-1.064-1.221-2.102-2.839-2.102s-3.088 1.152-3.088 3.227zm1.363-.75h3.348c-.055-.43-.566-1.301-1.623-1.301a1.79 1.79 0 0 0-1.725 1.301zm-8.758.75c.038 1.758 1.277 3.133 3.145 3.133 1.074 0 1.723-.477 1.961-.672v.547h1.242V1.703h-1.258v2.888c-.414-.36-1.062-.68-1.93-.68-1.91 0-3.198 1.473-3.16 3.23zm1.309-.08c0 1.119.723 1.978 1.836 1.978a1.88 1.88 0 0 0 1.94-1.904c0-1.371-1.011-1.99-1.972-1.99s-1.805.798-1.805 1.916zm76.683-.028C96.771 5.275 95.532 3.9 93.664 3.9c-1.074 0-1.723.477-1.961.672v-.547h-1.242v8.22h1.258V9.583c.414.36 1.063.68 1.93.68 1.91 0 3.198-1.473 3.16-3.23zm-1.309.08c0-1.119-.723-1.978-1.836-1.978a1.88 1.88 0 0 0-1.94 1.904c0 1.371 1.011 1.99 1.972 1.99S95.5 8.231 95.5 7.113zM106.441 10.173V4.036h1.254v.382c.361-.346 1-.485 1.47-.485 1.452 0 2.477 1.082 2.457 2.448v3.792h-1.27V6.492c0-.408-.214-1.339-1.315-1.339-.969 0-1.342.756-1.342 1.339v3.681h-1.254zm-30.383-.021V1.824h1.084l4.215 5.777V1.824h1.32v8.328h-1.094l-4.207-5.796v5.796h-1.319zM5.24 10.149H4V2.377h1.014l2.664 3.597 2.654-3.592h1.03v7.766h-1.256V4.762L7.678 8.068 5.24 4.742v5.407z" transform="translate(752, 514.490234375)" fill="#80808088" stroke="none"></path></svg>